<svg width="36" height="36" viewBox="0 0 36 36" fill="none" xmlns="http://www.w3.org/2000/svg">
<path d="M35.6704 5.1025L30.8975 0.329596C30.458 -0.109865 29.7458 -0.109865 29.3063 0.329596L27.7151 1.9208C27.2756 2.36026 27.2756 3.07254 27.7151 3.512L22.3241 8.90297C19.0489 7.51778 15.124 8.1485 12.4542 10.8176L1.31786 21.9539C-0.439286 23.7111 -0.439286 26.5609 1.31786 28.318L7.68197 34.6821C9.43911 36.4393 12.2889 36.4393 14.0461 34.6821L25.1831 23.5451C27.8522 20.876 28.4829 16.9504 27.0977 13.6752L32.4887 8.2842C32.9282 8.72367 33.6404 8.72367 34.0799 8.2842L35.6711 6.693C36.1099 6.25424 36.1099 5.54196 35.6704 5.1025ZM12.6011 29.763L6.23702 23.3989L14.8181 14.8178L21.1822 21.1819L12.6011 29.763Z" fill="black"/>
</svg>
